<svg width="100" height="100" viewBox="0 0 100 100" fill="none" xmlns="http://www.w3.org/2000/svg">
<g clip-path="url(#clip0_1_5)">
<path d="M100 50C100 56.5661 98.7067 63.0679 96.194 69.1342C93.6812 75.2005 89.9983 80.7124 85.3553 85.3553C80.7124 89.9983 75.2004 93.6812 69.1342 96.194C63.0679 98.7067 56.5661 100 50 100L50 70C52.6264 70 55.2272 69.4827 57.6537 68.4776C60.0802 67.4725 62.285 65.9993 64.1421 64.1421C65.9993 62.285 67.4725 60.0802 68.4776 57.6537C69.4827 55.2272 70 52.6264 70 50H100Z" fill="#FF6713"/>
<path d="M0 50C0 56.5661 1.29329 63.0679 3.80602 69.1342C6.31876 75.2005 10.0017 80.7124 14.6447 85.3553C19.2876 89.9983 24.7996 93.6812 30.8658 96.194C36.9321 98.7067 43.4339 100 50 100L50 70C47.3736 70 44.7728 69.4827 42.3463 68.4776C39.9198 67.4725 37.715 65.9993 35.8579 64.1421C34.0007 62.285 32.5275 60.0802 31.5224 57.6537C30.5173 55.2272 30 52.6264 30 50H0Z" fill="#251A66"/>
<path d="M0 50C0 43.4339 1.29329 36.9321 3.80602 30.8658C6.31876 24.7995 10.0017 19.2876 14.6447 14.6447C19.2876 10.0017 24.7996 6.31876 30.8658 3.80602C36.9321 1.29329 43.4339 -2.87013e-07 50 0L50 30C47.3736 30 44.7728 30.5173 42.3463 31.5224C39.9198 32.5275 37.715 34.0007 35.8579 35.8579C34.0007 37.715 32.5275 39.9198 31.5224 42.3463C30.5173 44.7728 30 47.3736 30 50H0Z" fill="#7A7B7B"/>
</g>
<defs>
<clipPath id="clip0_1_5">
<rect width="100" height="100" fill="white"/>
</clipPath>
</defs>
</svg>
